<?xml version="1.0" standalone="no"?>
<!DOCTYPE svg PUBLIC "-//W3C//DTD SVG 20010904//EN"
 "http://www.w3.org/TR/2001/REC-SVG-20010904/DTD/svg10.dtd">
<svg version="1.0" xmlns="http://www.w3.org/2000/svg"
 width="700.000000pt" height="700.000000pt" viewBox="0 0 700.000000 700.000000"
 preserveAspectRatio="xMidYMid meet">
<metadata>
Created by potrace 1.14, written by Peter Selinger 2001-2017
</metadata>
<g transform="translate(0.000000,700.000000) scale(0.100000,-0.100000)"
fill="#000000" stroke="none">
<path d="M1341 6049 c-190 -32 -359 -204 -390 -399 -15 -88 -15 -2180 -1
-2270 23 -143 123 -286 246 -352 103 -56 129 -58 736 -58 l557 0 3 588 3 587
23 58 c54 132 175 246 308 287 63 19 91 20 635 20 l569 0 0 558 c0 607 -2 633
-58 736 -66 123 -209 223 -352 246 -82 12 -2201 12 -2279 -1z m499 -502 c179
-84 220 -327 80 -467 -112 -112 -298 -112 -410 0 -112 112 -112 298 0 410 87
87 217 109 330 57z m1547 -3 c57 -27 101 -72 135 -137 32 -60 32 -184 0 -244
-57 -109 -149 -167 -261 -167 -251 1 -383 292 -219 479 90 102 222 128 345 69z
m-1574 -1530 c65 -22 139 -91 167 -156 64 -145 4 -302 -143 -380 -60 -32 -184
-32 -244 0 -147 78 -207 235 -143 380 27 63 102 134 163 155 56 20 143 21 200
1z"/>
<path d="M3333 4015 c-170 -46 -304 -181 -348 -350 -13 -52 -15 -227 -15
-1392 l0 -1333 1308 0 c833 0 1331 4 1372 10 201 32 370 204 400 406 13 95 13
2177 0 2264 -31 196 -192 365 -379 400 -34 6 -461 10 -1170 9 -927 0 -1125 -3
-1168 -14z m2163 -771 c101 -48 110 -188 15 -251 l-34 -23 -974 2 -974 3 -40
42 c-35 38 -39 47 -39 96 0 60 20 95 74 128 30 18 68 19 984 19 860 0 957 -2
988 -16z m-532 -578 c74 -31 103 -120 64 -195 -44 -86 0 -81 -781 -81 -754 0
-718 -3 -771 60 -21 25 -26 42 -26 84 0 59 20 94 74 127 30 18 63 19 719 19
564 0 694 -2 721 -14z m-498 -608 c32 -31 38 -45 42 -90 3 -44 0 -59 -20 -88
-47 -70 -45 -70 -506 -70 -445 0 -452 1 -501 54 -35 38 -41 122 -12 169 42 68
36 67 523 64 l438 -2 36 -37z"/>
</g>
</svg>
