<svg xmlns="http://www.w3.org/2000/svg" viewBox="0 0 512 512"><defs><style>.a{fill:#d3ced5;}</style></defs><path class="a" d="M407.72,217.19H252.47a35.29,35.29,0,0,0-35.28,35.28V443H407.72A35.29,35.29,0,0,0,443,407.72V252.47A35.29,35.29,0,0,0,407.72,217.19Zm-88.21,162.3H263.06a10.59,10.59,0,1,1,0-21.17h56.45a10.59,10.59,0,0,1,0,21.17Zm38.81-42.34H263.06a10.59,10.59,0,1,1,0-21.17h95.26a10.59,10.59,0,1,1,0,21.17Zm38.81-42.34H263.06a10.59,10.59,0,1,1,0-21.17H397.13a10.59,10.59,0,1,1,0,21.17Z"/><path class="a" d="M259.53,69H104.28A35.29,35.29,0,0,0,69,104.28V259.53a35.29,35.29,0,0,0,35.28,35.28h77.63V217.19a35.27,35.27,0,0,1,35.28-35.28h77.62V104.28A35.29,35.29,0,0,0,259.53,69ZM125.45,259.53a21.17,21.17,0,1,1,21.17-21.17A21.18,21.18,0,0,1,125.45,259.53Zm0-112.91a21.17,21.17,0,1,1,21.17-21.17A21.18,21.18,0,0,1,125.45,146.62Zm112.91,0a21.17,21.17,0,1,1,21.17-21.17A21.17,21.17,0,0,1,238.36,146.62Z"/></svg>