<svg xmlns="http://www.w3.org/2000/svg" xmlns:xlink="http://www.w3.org/1999/xlink" viewBox="0 0 2815 512"><defs><style>.a{fill:#22092c;}.b{fill:url(#a);}.c,.e{fill:#d3ced5;}.d{fill:url(#b);}.e{font-size:374px;font-family:Mitr-Regular, Mitr;}.f{letter-spacing:-0.02em;}.g{letter-spacing:-0.01em;}.h{letter-spacing:-0.05em;}</style><linearGradient id="a" x1="319.1" y1="217.19" x2="319.1" y2="443" gradientUnits="userSpaceOnUse"><stop offset="0" stop-color="#be3144"/><stop offset="1" stop-color="#be3144"/></linearGradient><linearGradient id="b" x1="170.9" y1="69" x2="170.9" y2="294.81" xlink:href="#a"/></defs><rect class="a" width="2815" height="512"/><path class="b" d="M396.72,217.19H241.47a35.29,35.29,0,0,0-35.28,35.28V443H396.72A35.29,35.29,0,0,0,432,407.72V252.47A35.29,35.29,0,0,0,396.72,217.19Zm-88.21,162.3H252.06a10.59,10.59,0,1,1,0-21.17h56.45a10.59,10.59,0,0,1,0,21.17Zm38.81-42.34H252.06a10.59,10.59,0,1,1,0-21.17h95.26a10.59,10.59,0,1,1,0,21.17Zm38.81-42.34H252.06a10.59,10.59,0,1,1,0-21.17H386.13a10.59,10.59,0,1,1,0,21.17Z"/><path class="c" d="M319.09,368.91a10.59,10.59,0,0,1-10.58,10.58H252.06a10.59,10.59,0,1,1,0-21.17h56.45A10.59,10.59,0,0,1,319.09,368.91Z"/><path class="c" d="M357.91,326.57a10.59,10.59,0,0,1-10.59,10.58H252.06a10.59,10.59,0,1,1,0-21.17h95.26A10.6,10.6,0,0,1,357.91,326.57Z"/><path class="c" d="M396.72,284.23a10.59,10.59,0,0,1-10.59,10.58H252.06a10.59,10.59,0,1,1,0-21.17H386.13A10.6,10.6,0,0,1,396.72,284.23Z"/><path class="d" d="M248.53,69H93.28A35.29,35.29,0,0,0,58,104.28V259.53a35.29,35.29,0,0,0,35.28,35.28h77.63V217.19a35.27,35.27,0,0,1,35.28-35.28h77.62V104.28A35.29,35.29,0,0,0,248.53,69ZM114.45,259.53a21.17,21.17,0,1,1,21.17-21.17A21.18,21.18,0,0,1,114.45,259.53Zm0-112.91a21.17,21.17,0,1,1,21.17-21.17A21.18,21.18,0,0,1,114.45,146.62Zm112.91,0a21.17,21.17,0,1,1,21.17-21.17A21.17,21.17,0,0,1,227.36,146.62Z"/><circle class="c" cx="227.36" cy="125.45" r="21.17" transform="translate(1.12 252.9) rotate(-58.28)"/><circle class="c" cx="114.45" cy="238.36" r="21.17"/><circle class="c" cx="114.45" cy="125.45" r="21.17" transform="translate(-45.25 183.18) rotate(-67.5)"/><text class="e" transform="translate(521.43 362.32)">B<tspan class="f" x="244.97" y="0">o</tspan><tspan x="467.87" y="0">ardBu</tspan><tspan class="g" x="1549.84" y="0">d</tspan><tspan class="h" x="1774.98" y="0">d</tspan><tspan x="1988.91" y="0">y</tspan></text></svg>